<mxfile host="app.diagrams.net" agent="Mozilla/5.0 (Windows NT 10.0; Win64; x64) AppleWebKit/537.36 (KHTML, like Gecko) Chrome/133.0.0.0 Safari/537.36" version="26.0.16">
  <diagram name="Page-1" id="zjHUpWR3TNRySho38M5R">
    <mxGraphModel dx="832" dy="529" grid="1" gridSize="10" guides="1" tooltips="1" connect="1" arrows="1" fold="1" page="1" pageScale="1" pageWidth="1100" pageHeight="850" math="0" shadow="0">
      <root>
        <mxCell id="0" />
        <mxCell id="1" parent="0" />
        <mxCell id="XhMY8xU7VFABiF2MBEGG-17" value="" style="triangle;whiteSpace=wrap;html=1;" vertex="1" parent="1">
          <mxGeometry x="300" y="210" width="140" height="20" as="geometry" />
        </mxCell>
        <mxCell id="XhMY8xU7VFABiF2MBEGG-18" value="" style="group" vertex="1" connectable="0" parent="1">
          <mxGeometry x="80" y="40" width="120" height="80" as="geometry" />
        </mxCell>
        <mxCell id="XhMY8xU7VFABiF2MBEGG-1" value="" style="shape=cube;whiteSpace=wrap;html=1;boundedLbl=1;backgroundOutline=1;darkOpacity=0.05;darkOpacity2=0.1;" vertex="1" parent="XhMY8xU7VFABiF2MBEGG-18">
          <mxGeometry width="120" height="80" as="geometry" />
        </mxCell>
        <mxCell id="XhMY8xU7VFABiF2MBEGG-2" value="Purchase Inventory" style="text;strokeColor=none;align=center;fillColor=none;html=1;verticalAlign=middle;whiteSpace=wrap;rounded=0;" vertex="1" parent="XhMY8xU7VFABiF2MBEGG-18">
          <mxGeometry x="20" y="20" width="100" height="60" as="geometry" />
        </mxCell>
        <mxCell id="XhMY8xU7VFABiF2MBEGG-19" value="" style="group" vertex="1" connectable="0" parent="1">
          <mxGeometry x="160" y="160" width="120" height="80" as="geometry" />
        </mxCell>
        <mxCell id="XhMY8xU7VFABiF2MBEGG-3" value="" style="shape=cube;whiteSpace=wrap;html=1;boundedLbl=1;backgroundOutline=1;darkOpacity=0.05;darkOpacity2=0.1;" vertex="1" parent="XhMY8xU7VFABiF2MBEGG-19">
          <mxGeometry width="120" height="80" as="geometry" />
        </mxCell>
        <mxCell id="XhMY8xU7VFABiF2MBEGG-8" value="Enter Inventory into IMS" style="text;strokeColor=none;align=center;fillColor=none;html=1;verticalAlign=middle;whiteSpace=wrap;rounded=0;" vertex="1" parent="XhMY8xU7VFABiF2MBEGG-19">
          <mxGeometry x="25" y="20" width="90" height="60" as="geometry" />
        </mxCell>
        <mxCell id="XhMY8xU7VFABiF2MBEGG-21" value="" style="group" vertex="1" connectable="0" parent="1">
          <mxGeometry x="400" y="210" width="172.5" height="50" as="geometry" />
        </mxCell>
        <mxCell id="XhMY8xU7VFABiF2MBEGG-22" value="" style="rounded=0;whiteSpace=wrap;html=1;" vertex="1" parent="XhMY8xU7VFABiF2MBEGG-21">
          <mxGeometry x="12.5" width="150" height="50" as="geometry" />
        </mxCell>
        <mxCell id="XhMY8xU7VFABiF2MBEGG-23" value="Designate Project or Consumable" style="text;strokeColor=none;align=center;fillColor=none;html=1;verticalAlign=middle;whiteSpace=wrap;rounded=0;" vertex="1" parent="XhMY8xU7VFABiF2MBEGG-21">
          <mxGeometry y="6.5" width="172.5" height="33.5" as="geometry" />
        </mxCell>
        <mxCell id="XhMY8xU7VFABiF2MBEGG-24" value="" style="triangle;whiteSpace=wrap;html=1;" vertex="1" parent="1">
          <mxGeometry x="300" y="180" width="140" height="20" as="geometry" />
        </mxCell>
        <mxCell id="XhMY8xU7VFABiF2MBEGG-20" value="" style="group" vertex="1" connectable="0" parent="1">
          <mxGeometry x="400" y="150" width="172.5" height="50" as="geometry" />
        </mxCell>
        <mxCell id="XhMY8xU7VFABiF2MBEGG-16" value="" style="rounded=0;whiteSpace=wrap;html=1;" vertex="1" parent="XhMY8xU7VFABiF2MBEGG-20">
          <mxGeometry x="12.5" width="150" height="50" as="geometry" />
        </mxCell>
        <mxCell id="XhMY8xU7VFABiF2MBEGG-14" value="&lt;span style=&quot;text-wrap-mode: nowrap;&quot;&gt;Enter Quantity,&lt;/span&gt;&lt;div&gt;&lt;span style=&quot;text-wrap-mode: nowrap;&quot;&gt;&amp;nbsp;Cost, and&amp;nbsp;&lt;/span&gt;&lt;span style=&quot;text-wrap-mode: nowrap; background-color: transparent; color: light-dark(rgb(0, 0, 0), rgb(255, 255, 255));&quot;&gt;&amp;nbsp;Location&lt;/span&gt;&lt;/div&gt;" style="text;strokeColor=none;align=center;fillColor=none;html=1;verticalAlign=middle;whiteSpace=wrap;rounded=0;" vertex="1" parent="XhMY8xU7VFABiF2MBEGG-20">
          <mxGeometry y="6.5" width="172.5" height="33.5" as="geometry" />
        </mxCell>
        <mxCell id="XhMY8xU7VFABiF2MBEGG-26" value="" style="group" vertex="1" connectable="0" parent="1">
          <mxGeometry x="320" y="285" width="120" height="80" as="geometry" />
        </mxCell>
        <mxCell id="XhMY8xU7VFABiF2MBEGG-27" value="" style="shape=cube;whiteSpace=wrap;html=1;boundedLbl=1;backgroundOutline=1;darkOpacity=0.05;darkOpacity2=0.1;" vertex="1" parent="XhMY8xU7VFABiF2MBEGG-26">
          <mxGeometry width="120" height="80" as="geometry" />
        </mxCell>
        <mxCell id="XhMY8xU7VFABiF2MBEGG-28" value="Consume Inventory" style="text;strokeColor=none;align=center;fillColor=none;html=1;verticalAlign=middle;whiteSpace=wrap;rounded=0;" vertex="1" parent="XhMY8xU7VFABiF2MBEGG-26">
          <mxGeometry x="20" y="20" width="100" height="60" as="geometry" />
        </mxCell>
        <mxCell id="XhMY8xU7VFABiF2MBEGG-31" value="" style="group" vertex="1" connectable="0" parent="1">
          <mxGeometry x="70" y="130" width="80" height="50" as="geometry" />
        </mxCell>
        <mxCell id="XhMY8xU7VFABiF2MBEGG-29" value="" style="endArrow=none;dashed=1;html=1;rounded=0;" edge="1" parent="XhMY8xU7VFABiF2MBEGG-31">
          <mxGeometry width="50" height="50" relative="1" as="geometry">
            <mxPoint y="50" as="sourcePoint" />
            <mxPoint x="50" as="targetPoint" />
          </mxGeometry>
        </mxCell>
        <mxCell id="XhMY8xU7VFABiF2MBEGG-30" value="" style="endArrow=none;dashed=1;html=1;rounded=0;" edge="1" parent="XhMY8xU7VFABiF2MBEGG-31">
          <mxGeometry width="50" height="50" relative="1" as="geometry">
            <mxPoint y="50" as="sourcePoint" />
            <mxPoint x="80" y="50" as="targetPoint" />
          </mxGeometry>
        </mxCell>
        <mxCell id="XhMY8xU7VFABiF2MBEGG-35" value="" style="triangle;whiteSpace=wrap;html=1;" vertex="1" parent="1">
          <mxGeometry x="460" y="340" width="140" height="20" as="geometry" />
        </mxCell>
        <mxCell id="XhMY8xU7VFABiF2MBEGG-36" value="" style="group" vertex="1" connectable="0" parent="1">
          <mxGeometry x="560" y="340" width="172.5" height="50" as="geometry" />
        </mxCell>
        <mxCell id="XhMY8xU7VFABiF2MBEGG-37" value="" style="rounded=0;whiteSpace=wrap;html=1;" vertex="1" parent="XhMY8xU7VFABiF2MBEGG-36">
          <mxGeometry x="12.5" width="150" height="50" as="geometry" />
        </mxCell>
        <mxCell id="XhMY8xU7VFABiF2MBEGG-38" value="Update Value of&lt;div&gt;Inventory Item&lt;/div&gt;" style="text;strokeColor=none;align=center;fillColor=none;html=1;verticalAlign=middle;whiteSpace=wrap;rounded=0;" vertex="1" parent="XhMY8xU7VFABiF2MBEGG-36">
          <mxGeometry y="6.5" width="172.5" height="33.5" as="geometry" />
        </mxCell>
        <mxCell id="XhMY8xU7VFABiF2MBEGG-39" value="" style="triangle;whiteSpace=wrap;html=1;" vertex="1" parent="1">
          <mxGeometry x="460" y="305" width="140" height="20" as="geometry" />
        </mxCell>
        <mxCell id="XhMY8xU7VFABiF2MBEGG-40" value="" style="group" vertex="1" connectable="0" parent="1">
          <mxGeometry x="560" y="280" width="172.5" height="50" as="geometry" />
        </mxCell>
        <mxCell id="XhMY8xU7VFABiF2MBEGG-41" value="" style="rounded=0;whiteSpace=wrap;html=1;" vertex="1" parent="XhMY8xU7VFABiF2MBEGG-40">
          <mxGeometry x="12.5" width="150" height="50" as="geometry" />
        </mxCell>
        <mxCell id="XhMY8xU7VFABiF2MBEGG-42" value="Update Quantity on Hand" style="text;strokeColor=none;align=center;fillColor=none;html=1;verticalAlign=middle;whiteSpace=wrap;rounded=0;" vertex="1" parent="XhMY8xU7VFABiF2MBEGG-40">
          <mxGeometry y="6.5" width="172.5" height="33.5" as="geometry" />
        </mxCell>
        <mxCell id="XhMY8xU7VFABiF2MBEGG-43" value="" style="triangle;whiteSpace=wrap;html=1;" vertex="1" parent="1">
          <mxGeometry x="732.5" y="355" width="140" height="20" as="geometry" />
        </mxCell>
        <mxCell id="XhMY8xU7VFABiF2MBEGG-44" value="" style="group" vertex="1" connectable="0" parent="1">
          <mxGeometry x="840" y="340" width="172.5" height="50" as="geometry" />
        </mxCell>
        <mxCell id="XhMY8xU7VFABiF2MBEGG-45" value="" style="rounded=0;whiteSpace=wrap;html=1;" vertex="1" parent="XhMY8xU7VFABiF2MBEGG-44">
          <mxGeometry x="12.5" width="150" height="50" as="geometry" />
        </mxCell>
        <mxCell id="XhMY8xU7VFABiF2MBEGG-46" value="&lt;div&gt;Allocate Cost (value) to&lt;/div&gt;&lt;div&gt;Project if applicable&lt;/div&gt;" style="text;strokeColor=none;align=center;fillColor=none;html=1;verticalAlign=middle;whiteSpace=wrap;rounded=0;" vertex="1" parent="XhMY8xU7VFABiF2MBEGG-44">
          <mxGeometry y="6.5" width="172.5" height="33.5" as="geometry" />
        </mxCell>
        <mxCell id="XhMY8xU7VFABiF2MBEGG-47" value="" style="endArrow=none;dashed=1;html=1;rounded=0;" edge="1" parent="1">
          <mxGeometry width="50" height="50" relative="1" as="geometry">
            <mxPoint x="150" y="300" as="sourcePoint" />
            <mxPoint x="200" y="250" as="targetPoint" />
          </mxGeometry>
        </mxCell>
        <mxCell id="XhMY8xU7VFABiF2MBEGG-48" value="" style="endArrow=none;dashed=1;html=1;rounded=0;" edge="1" parent="1">
          <mxGeometry width="50" height="50" relative="1" as="geometry">
            <mxPoint x="150" y="300" as="sourcePoint" />
            <mxPoint x="310" y="300" as="targetPoint" />
          </mxGeometry>
        </mxCell>
      </root>
    </mxGraphModel>
  </diagram>
</mxfile>
